<svg width="18.397186" height="18.397705" viewBox="0 0 18.3972 18.3977" fill="none" xmlns="http://www.w3.org/2000/svg" xmlns:xlink="http://www.w3.org/1999/xlink">
	<desc>
			Created with Pixso.
	</desc>
	<defs/>
	<g opacity="0.800000">
		<path id="Union" d="M8.17218 16.3444Q7.26294 16.3444 6.39639 16.152Q5.67902 15.9928 4.99091 15.7018Q4.29727 15.4084 3.67883 15.0009Q2.9895 14.5467 2.39359 13.9508Q1.79767 13.3549 1.34354 12.6656L1.34351 12.6656Q0.936005 12.0471 0.642609 11.3535Q0.351562 10.6653 0.192322 9.94794Q0 9.08142 0 8.17218Q0 7.26297 0.192322 6.39642Q0.351562 5.67902 0.642609 4.99091Q0.936005 4.29724 1.34351 3.6788L1.34351 3.67877L1.34351 3.67877Q1.79767 2.98947 2.39359 2.39359Q2.98947 1.79767 3.67877 1.34351Q4.29724 0.936005 4.99091 0.642609Q5.67902 0.351562 6.39639 0.192352Q7.26294 0 8.17218 0Q9.08142 0 9.94797 0.192352L9.94803 0.192352Q10.6654 0.351593 11.3535 0.642609Q12.0471 0.936005 12.6656 1.34348Q13.3549 1.79767 13.9508 2.39359Q14.5467 2.98947 15.0008 3.67874L15.0009 3.67877Q15.4084 4.29724 15.7018 4.99091Q15.9928 5.67902 16.152 6.39639Q16.3444 7.26297 16.3444 8.17218Q16.3444 9.08142 16.152 9.94794Q15.9928 10.6653 15.7018 11.3535Q15.4084 12.0471 15.0008 12.6656Q14.8194 12.941 14.6153 13.2016L18.1002 16.6865C18.4962 17.0825 18.4962 17.7047 18.1002 18.1007C17.7042 18.4967 17.082 18.4967 16.686 18.1007L13.201 14.6157Q12.9407 14.8196 12.6656 15.0009Q12.0471 15.4084 11.3535 15.7018Q10.6653 15.9928 9.94797 16.152Q9.08142 16.3444 8.17218 16.3444ZM8.17218 14.3444Q8.87872 14.3444 9.55026 14.1911L9.55029 14.1911Q10.0729 14.0718 10.5744 13.8597Q11.0884 13.6423 11.5479 13.3417L11.548 13.3417L11.548 13.3417Q12.0786 12.9946 12.5366 12.5366Q12.9945 12.0786 13.3416 11.5481Q13.6423 11.0884 13.8597 10.5744Q14.0718 10.0729 14.1911 9.55026Q14.3444 8.87872 14.3444 8.17218Q14.3444 7.46567 14.1911 6.7941L14.1911 6.7941Q14.0718 6.27145 13.8597 5.76999Q13.6423 5.25598 13.3417 4.79642L13.3417 4.79639Q12.9946 4.26581 12.5366 3.8078Q12.0786 3.34979 11.548 3.00269L11.5479 3.00269Q11.0884 2.70203 10.5744 2.48462Q10.0729 2.27252 9.55029 2.15326L9.55026 2.15326Q8.87869 2 8.17218 2Q7.46567 2 6.7941 2.15326Q6.27145 2.27252 5.76999 2.48462Q5.25595 2.70206 4.79636 3.00272Q4.26578 3.34979 3.8078 3.8078Q3.34979 4.26578 3.00272 4.79633L3.00272 4.79636Q2.70206 5.25595 2.48462 5.76999Q2.27252 6.27148 2.15326 6.79413Q2 7.46567 2 8.17218Q2 8.87869 2.15323 9.5502L2.15326 9.55023L2.15326 9.55026Q2.27252 10.0729 2.48462 10.5744Q2.70206 11.0884 3.00272 11.548L3.00275 11.5481Q3.34979 12.0786 3.8078 12.5366Q4.26581 12.9946 4.79642 13.3417Q5.25598 13.6423 5.76999 13.8597Q6.27145 14.0718 6.7941 14.1911L6.79413 14.1911Q7.46567 14.3444 8.17218 14.3444Z" clip-rule="evenodd" fill="#889EA8" fill-opacity="1.000000" fill-rule="evenodd"/>
	</g>
</svg>
